<?xml version="1.0" encoding="utf-8"?>
<!-- Generator: Adobe Illustrator 24.3.0, SVG Export Plug-In . SVG Version: 6.00 Build 0)  -->
<svg version="1.1" id="Layer_1" xmlns="http://www.w3.org/2000/svg" xmlns:xlink="http://www.w3.org/1999/xlink" x="0px" y="0px"
	 viewBox="0 0 512 512" style="enable-background:new 0 0 512 512;" xml:space="preserve">
<style type="text/css">
	.st0{fill:#FFFFFF;}
</style>
<g>
	<rect x="25.9" y="60.3" class="st0" width="76.2" height="7.3"/>
	<rect x="25.9" y="45.5" class="st0" width="34.2" height="7.3"/>
	<rect x="25.9" y="75.2" class="st0" width="34.2" height="7.3"/>
</g>
<rect x="153.9" y="60.3" class="st0" width="76.2" height="7.3"/>
<rect x="174.9" y="45.5" class="st0" width="34.2" height="7.3"/>
<rect x="174.9" y="75.2" class="st0" width="34.2" height="7.3"/>
<g>
	<rect x="281.9" y="60.3" class="st0" width="76.1" height="7.3"/>
	<rect x="323.9" y="45.5" class="st0" width="34.1" height="7.3"/>
	<rect x="323.9" y="75.2" class="st0" width="34.1" height="7.3"/>
</g>
<rect x="429.8" y="61.5" class="st0" width="36.5" height="4.9"/>
<path class="st0" d="M158.2,197.9v6.2l59.1-1.3c-5.5,6.8-10.5,15.7-10.5,24.8l0.1,0.2c8.6-11.8,21.4-21.4,35.2-26.5v-0.3
	c-14-5.1-26.2-14.5-35.2-26.4l-0.1,0.1c0.2,8.5,4.4,19.1,10.5,24.7L158.2,197.9z"/>
<path class="st0" d="M108.8,204.3v-6.2l-59.1,1.3c5.5-6.8,10.5-15.7,10.5-24.8l-0.1-0.2c-8.6,11.8-21.4,21.4-35.2,26.5v0.3
	c14,5.1,26.2,14.5,35.2,26.4l0.1-0.1c-0.2-8.5-4.3-19.1-10.5-24.7L108.8,204.3z"/>
</svg>
